#
#
#

mtllib flag.mtl


#
#  Mesh
#
g  Mesh

v -1.717006 -0.578752 5.015517
v -1.718928 -0.598261 -0.416051
v -1.717006 -0.578752 -0.416051
v -1.718928 -0.598261 5.015517
v -1.724618 -0.617020 -0.416051
v -1.724618 -0.617020 5.015517
v -1.733859 -0.634309 -0.416051
v -1.733859 -0.634309 5.015517
v -1.746295 -0.649463 -0.416051
v -1.746295 -0.649463 5.015517
v -1.761449 -0.661899 -0.416051
v -1.761449 -0.661899 5.015517
v -1.778738 -0.671140 -0.416051
v -1.778738 -0.671140 5.015517
v -1.797497 -0.676830 -0.416051
v -1.797497 -0.676830 5.015517
v -1.817006 -0.678752 -0.416051
v -1.817006 -0.678752 5.015517
v -1.836515 -0.676830 -0.416051
v -1.836515 -0.676830 5.015517
v -1.855274 -0.671140 -0.416051
v -1.855274 -0.671140 5.015517
v -1.872563 -0.661899 -0.416051
v -1.872563 -0.661899 5.015517
v -1.887717 -0.649463 -0.416051
v -1.887717 -0.649463 5.015517
v -1.900153 -0.634309 -0.416051
v -1.900153 -0.634309 5.015517
v -1.909394 -0.617020 -0.416051
v -1.909394 -0.617020 5.015517
v -1.915084 -0.598261 -0.416051
v -1.915084 -0.598261 5.015517
v -1.917006 -0.578752 -0.416051
v -1.917006 -0.578752 5.015517
v -1.915084 -0.559243 -0.416051
v -1.915084 -0.559243 5.015517
v -1.909394 -0.540484 -0.416051
v -1.909394 -0.540484 5.015517
v -1.900153 -0.523195 -0.416051
v -1.900153 -0.523195 5.015517
v -1.887717 -0.508041 -0.416051
v -1.887717 -0.508041 5.015517
v -1.872563 -0.495605 -0.416051
v -1.872563 -0.495605 5.015517
v -1.855274 -0.486364 -0.416051
v -1.855274 -0.486364 5.015517
v -1.836515 -0.480673 -0.416051
v -1.836515 -0.480673 5.015517
v -1.817006 -0.478752 -0.416051
v -1.817006 -0.478752 5.015517
v -1.797497 -0.480673 -0.416051
v -1.797497 -0.480673 5.015517
v -1.778738 -0.486364 -0.416051
v -1.778738 -0.486364 5.015517
v -1.761449 -0.495605 -0.416051
v -1.761449 -0.495605 5.015517
v -1.746295 -0.508041 -0.416051
v -1.746295 -0.508041 5.015517
v -1.733859 -0.523195 -0.416051
v -1.733859 -0.523195 5.015517
v -1.724618 -0.540484 -0.416051
v -1.724618 -0.540484 5.015517
v -1.718927 -0.559243 -0.416051
v -1.718927 -0.559243 5.015517
v -2.016864 -0.618506 -0.572007
v -1.856760 -0.378894 -0.572007
v -1.617148 -0.538998 -0.572007
v -3.932821 -0.578752 2.792511
v -1.764853 -0.578752 4.792511
v -3.932821 -0.578752 4.792511
v -1.613232 -0.578752 -0.572007
v -1.628744 -0.500771 -0.572007
v -1.647574 -0.465542 -0.572007
v -1.672916 -0.434662 -0.572007
v -1.703795 -0.409320 -0.572007
v -1.739025 -0.390490 -0.572007
v -1.777252 -0.378894 -0.572007
v -1.817006 -0.374978 -0.572007
v -1.894987 -0.390490 -0.572007
v -1.930217 -0.409320 -0.572007
v -1.961096 -0.434662 -0.572007
v -1.986438 -0.465541 -0.572007
v -2.005268 -0.500771 -0.572007
v -2.016864 -0.538998 -0.572007
v -2.020780 -0.578752 -0.572007
v -2.005268 -0.656733 -0.572007
v -1.986438 -0.691962 -0.572007
v -1.961096 -0.722842 -0.572007
v -1.930217 -0.748183 -0.572007
v -1.894987 -0.767014 -0.572007
v -1.856760 -0.778610 -0.572007
v -1.817006 -0.782525 -0.572007
v -1.777252 -0.778610 -0.572007
v -1.739025 -0.767014 -0.572007
v -1.703796 -0.748183 -0.572007
v -1.672916 -0.722842 -0.572007
v -1.647575 -0.691962 -0.572007
v -1.628744 -0.656733 -0.572007
v -1.617148 -0.618506 -0.572007
v -1.764853 -0.578752 2.792511
vn 0.995187 -0.097999 0.000000
vn 0.956933 -0.290310 0.000000
vn 0.881915 -0.471408 0.000000
vn 0.773003 -0.634403 0.000000
vn 0.634402 -0.773003 0.000000
vn 0.471408 -0.881915 0.000000
vn 0.290310 -0.956933 0.000000
vn 0.097999 -0.995187 0.000000
vn -0.097999 -0.995187 -0.000000
vn -0.290310 -0.956933 -0.000000
vn -0.471408 -0.881915 -0.000000
vn -0.634403 -0.773003 -0.000000
vn -0.773003 -0.634402 -0.000000
vn -0.881915 -0.471408 -0.000000
vn -0.956933 -0.290310 -0.000000
vn -0.995187 -0.097999 -0.000000
vn -0.995187 0.097999 -0.000000
vn -0.956933 0.290310 -0.000000
vn -0.881915 0.471408 -0.000000
vn -0.773003 0.634403 -0.000000
vn -0.634402 0.773003 -0.000000
vn -0.471408 0.881915 -0.000000
vn -0.290310 0.956933 -0.000000
vn -0.097999 0.995187 -0.000000
vn 0.097999 0.995187 0.000000
vn 0.290310 0.956933 0.000000
vn 0.471408 0.881915 0.000000
vn 0.634403 0.773003 0.000000
vn 0.773003 0.634402 0.000000
vn 0.881915 0.471408 0.000000
vn -0.000000 0.000000 1.000000
vn 0.956933 0.290310 0.000000
vn 0.995187 0.097999 0.000000
vn 0.000000 -0.000000 -1.000000
vn -0.000000 -1.000000 0.000000
vn 0.829776 0.081698 0.552084
vn 0.797891 0.241997 0.552094
vn 0.735326 0.393014 0.552120
vn 0.644523 0.528919 0.552119
vn 0.528919 0.644523 0.552119
vn 0.393014 0.735326 0.552119
vn 0.241997 0.797891 0.552094
vn 0.081698 0.829776 0.552084
vn -0.081698 0.829776 0.552084
vn -0.241997 0.797891 0.552094
vn -0.393014 0.735326 0.552119
vn -0.528919 0.644523 0.552119
vn -0.644523 0.528919 0.552119
vn -0.735326 0.393014 0.552119
vn -0.797891 0.241997 0.552094
vn -0.829776 0.081698 0.552084
vn -0.829745 -0.081704 0.552130
vn -0.797891 -0.241997 0.552094
vn -0.735326 -0.393014 0.552119
vn -0.644523 -0.528919 0.552119
vn -0.528919 -0.644523 0.552119
vn -0.393014 -0.735326 0.552119
vn -0.241997 -0.797891 0.552094
vn -0.081704 -0.829745 0.552130
vn 0.081704 -0.829745 0.552130
vn 0.241997 -0.797891 0.552094
vn 0.393014 -0.735326 0.552119
vn 0.528919 -0.644523 0.552119
vn 0.644523 -0.528919 0.552119
vn 0.735326 -0.393014 0.552120
vn 0.797891 -0.241997 0.552094
vn 0.829776 -0.081698 0.552084
vn -0.000200 0.000000 1.000000
vn 0.000200 -0.000000 1.000000
vn 0.000100 -0.000000 1.000000
vn -0.000100 0.000000 1.000000
vn 0.081704 0.829745 0.552130
vn -0.081704 0.829745 0.552130
vn -0.829745 0.081704 0.552130
vn -0.829776 -0.081698 0.552084
vn -0.081698 -0.829776 0.552084
vn 0.081698 -0.829776 0.552084
vn 0.829745 -0.081704 0.552130
vt 0.515062 0.512539
vt 0.499252 0.266636
vt 0.515062 0.266636
vt 0.499252 0.512539
vt 0.483442 0.266636
vt 0.483442 0.512539
vt 0.467631 0.266636
vt 0.467631 0.512539
vt 0.451821 0.266636
vt 0.451821 0.512539
vt 0.436011 0.266636
vt 0.436011 0.512539
vt 0.420201 0.266636
vt 0.420201 0.512539
vt 0.404390 0.266636
vt 0.404390 0.512539
vt 0.388580 0.266636
vt 0.388580 0.512539
vt 0.372770 0.266636
vt 0.372770 0.512539
vt 0.356960 0.266636
vt 0.356960 0.512539
vt 0.341149 0.266636
vt 0.341149 0.512539
vt 0.325339 0.266636
vt 0.325339 0.512539
vt 0.309529 0.266636
vt 0.309529 0.512539
vt 0.293719 0.266636
vt 0.293719 0.512539
vt 0.277908 0.266636
vt 0.277908 0.512539
vt 0.262098 0.266636
vt 0.262098 0.512539
vt 0.246288 0.266636
vt 0.246288 0.512539
vt 0.230478 0.266636
vt 0.230478 0.512539
vt 0.214668 0.266636
vt 0.214668 0.512539
vt 0.198857 0.266636
vt 0.198857 0.512539
vt 0.183047 0.266636
vt 0.183047 0.512539
vt 0.167237 0.266636
vt 0.167237 0.512539
vt 0.151427 0.266636
vt 0.151427 0.512539
vt 0.135616 0.266636
vt 0.135616 0.512539
vt 0.119806 0.266636
vt 0.119806 0.512539
vt 0.103996 0.266636
vt 0.103996 0.512539
vt 0.088186 0.266636
vt 0.088186 0.512539
vt 0.072375 0.266636
vt 0.072375 0.512539
vt 0.056565 0.266636
vt 0.056565 0.512539
vt 0.040755 0.266636
vt 0.182083 0.245274
vt 0.023436 0.179560
vt 0.089150 0.020914
vt 0.040755 0.512539
vt 0.024945 0.266636
vt 0.024945 0.512539
vt 0.009134 0.266636
vt 0.412268 0.014004
vt 0.269491 0.109405
vt 0.364892 0.252183
vt 0.487222 0.521141
vt 0.015444 0.992919
vt 0.015444 0.521141
vt 0.009134 0.259576
vt 0.024945 0.259576
vt 0.040755 0.259576
vt 0.056565 0.259576
vt 0.072375 0.259576
vt 0.088186 0.259576
vt 0.103996 0.259576
vt 0.119806 0.259576
vt 0.135616 0.259576
vt 0.151427 0.259576
vt 0.167237 0.259576
vt 0.183047 0.259576
vt 0.198857 0.259576
vt 0.214668 0.259576
vt 0.230478 0.259576
vt 0.246288 0.259576
vt 0.262098 0.259576
vt 0.277908 0.259576
vt 0.293719 0.259576
vt 0.309529 0.259576
vt 0.325339 0.259576
vt 0.341149 0.259576
vt 0.356960 0.259576
vt 0.372770 0.259576
vt 0.388580 0.259576
vt 0.404390 0.259576
vt 0.420201 0.259576
vt 0.436011 0.259576
vt 0.451821 0.259576
vt 0.467631 0.259576
vt 0.483442 0.259576
vt 0.499252 0.259576
vt 0.515062 0.259576
vt 0.159305 0.252183
vt 0.135616 0.254516
vt 0.111928 0.252183
vt 0.089150 0.245274
vt 0.068158 0.234053
vt 0.049758 0.218953
vt 0.034657 0.200553
vt 0.016527 0.156782
vt 0.014194 0.133094
vt 0.016527 0.109405
vt 0.023436 0.086627
vt 0.034657 0.065635
vt 0.049757 0.047235
vt 0.068157 0.032134
vt 0.111928 0.014004
vt 0.182083 0.020914
vt 0.135616 0.011671
vt 0.159305 0.014004
vt 0.203075 0.032134
vt 0.221475 0.047235
vt 0.236576 0.065635
vt 0.247796 0.086627
vt 0.254706 0.109405
vt 0.257039 0.133094
vt 0.254706 0.156782
vt 0.247796 0.179560
vt 0.236576 0.200552
vt 0.221475 0.218952
vt 0.203075 0.234053
vt 0.009134 0.512539
vt 0.388580 0.254516
vt 0.412269 0.252183
vt 0.435047 0.245274
vt 0.456039 0.234053
vt 0.474439 0.218952
vt 0.507670 0.156782
vt 0.489539 0.200552
vt 0.500760 0.179560
vt 0.510003 0.133094
vt 0.507670 0.109405
vt 0.500760 0.086627
vt 0.489539 0.065635
vt 0.474439 0.047235
vt 0.456039 0.032134
vt 0.435047 0.020914
vt 0.388580 0.011671
vt 0.364892 0.014004
vt 0.342114 0.020914
vt 0.321121 0.032134
vt 0.302721 0.047235
vt 0.287621 0.065635
vt 0.276400 0.086627
vt 0.267157 0.133094
vt 0.269491 0.156782
vt 0.276400 0.179560
vt 0.287621 0.200553
vt 0.302722 0.218953
vt 0.321121 0.234053
vt 0.342114 0.245274
vt 0.487222 0.992919
f 1/1/1 2/2/1 3/3/1
f 4/4/2 5/5/2 2/2/2
f 6/6/3 7/7/3 5/5/3
f 8/8/4 9/9/4 7/7/4
f 10/10/5 11/11/5 9/9/5
f 12/12/6 13/13/6 11/11/6
f 14/14/7 15/15/7 13/13/7
f 16/16/8 17/17/8 15/15/8
f 18/18/9 19/19/9 17/17/9
f 20/20/10 21/21/10 19/19/10
f 22/22/11 23/23/11 21/21/11
f 24/24/12 25/25/12 23/23/12
f 26/26/13 27/27/13 25/25/13
f 28/28/14 29/29/14 27/27/14
f 30/30/15 31/31/15 29/29/15
f 32/32/16 33/33/16 31/31/16
f 34/34/17 35/35/17 33/33/17
f 36/36/18 37/37/18 35/35/18
f 38/38/19 39/39/19 37/37/19
f 40/40/20 41/41/20 39/39/20
f 42/42/21 43/43/21 41/41/21
f 44/44/22 45/45/22 43/43/22
f 46/46/23 47/47/23 45/45/23
f 48/48/24 49/49/24 47/47/24
f 50/50/25 51/51/25 49/49/25
f 52/52/26 53/53/26 51/51/26
f 54/54/27 55/55/27 53/53/27
f 56/56/28 57/57/28 55/55/28
f 58/58/29 59/59/29 57/57/29
f 60/60/30 61/61/30 59/59/30
f 6/62/31 54/63/31 38/64/31
f 62/65/32 63/66/32 61/61/32
f 64/67/33 3/68/33 63/66/33
f 65/69/34 66/70/34 67/71/34
f 68/72/35 69/73/35 70/74/35
f 63/66/36 71/75/36 67/76/36
f 61/61/37 67/76/37 72/77/37
f 59/59/38 72/77/38 73/78/38
f 57/57/39 73/78/39 74/79/39
f 55/55/40 74/79/40 75/80/40
f 53/53/41 75/80/41 76/81/41
f 51/51/42 76/81/42 77/82/42
f 49/49/43 77/82/43 78/83/43
f 47/47/44 78/83/44 66/84/44
f 45/45/45 66/84/45 79/85/45
f 43/43/46 79/85/46 80/86/46
f 41/41/47 80/86/47 81/87/47
f 39/39/48 81/87/48 82/88/48
f 37/37/49 82/88/49 83/89/49
f 35/35/50 83/89/50 84/90/50
f 33/33/51 84/90/51 85/91/51
f 31/31/52 85/91/52 65/92/52
f 29/29/53 65/92/53 86/93/53
f 87/94/54 29/29/54 86/93/54
f 25/25/55 87/94/55 88/95/55
f 23/23/56 88/95/56 89/96/56
f 90/97/57 23/23/57 89/96/57
f 91/98/58 21/21/58 90/97/58
f 17/17/59 91/98/59 92/99/59
f 15/15/60 92/99/60 93/100/60
f 94/101/61 15/15/61 93/100/61
f 11/11/62 94/101/62 95/102/62
f 9/9/63 95/102/63 96/103/63
f 7/7/64 96/103/64 97/104/64
f 5/5/65 97/104/65 98/105/65
f 2/2/66 98/105/66 99/106/66
f 3/3/67 99/106/67 71/107/67
f 1/1/1 4/4/1 2/2/1
f 4/4/2 6/6/2 5/5/2
f 6/6/3 8/8/3 7/7/3
f 8/8/4 10/10/4 9/9/4
f 10/10/5 12/12/5 11/11/5
f 12/12/6 14/14/6 13/13/6
f 14/14/7 16/16/7 15/15/7
f 16/16/8 18/18/8 17/17/8
f 18/18/9 20/20/9 19/19/9
f 20/20/10 22/22/10 21/21/10
f 22/22/11 24/24/11 23/23/11
f 24/24/12 26/26/12 25/25/12
f 26/26/13 28/28/13 27/27/13
f 28/28/14 30/30/14 29/29/14
f 30/30/15 32/32/15 31/31/15
f 32/32/16 34/34/16 33/33/16
f 34/34/17 36/36/17 35/35/17
f 36/36/18 38/38/18 37/37/18
f 38/38/19 40/40/19 39/39/19
f 40/40/20 42/42/20 41/41/20
f 42/42/21 44/44/21 43/43/21
f 44/44/22 46/46/22 45/45/22
f 46/46/23 48/48/23 47/47/23
f 48/48/24 50/50/24 49/49/24
f 50/50/25 52/52/25 51/51/25
f 52/52/26 54/54/26 53/53/26
f 54/54/27 56/56/27 55/55/27
f 56/56/28 58/58/28 57/57/28
f 58/58/29 60/60/29 59/59/29
f 60/60/30 62/65/30 61/61/30
f 6/62/68 4/108/68 1/109/68
f 1/109/31 64/110/31 6/62/31
f 64/110/31 62/111/31 6/62/31
f 62/111/69 60/112/69 58/113/69
f 58/113/70 56/114/70 54/63/70
f 54/63/31 52/115/31 50/116/31
f 50/116/31 48/117/31 54/63/31
f 48/117/31 46/118/31 54/63/31
f 46/118/71 44/119/71 42/120/71
f 42/120/31 40/121/31 46/118/31
f 40/121/71 38/64/71 46/118/71
f 38/64/31 36/122/31 30/123/31
f 36/122/31 34/124/31 30/123/31
f 34/124/69 32/125/69 30/123/69
f 30/123/68 28/126/68 26/127/68
f 26/127/71 24/128/71 22/129/71
f 22/129/31 20/130/31 18/131/31
f 18/131/31 16/132/31 14/133/31
f 14/133/70 12/134/70 10/135/70
f 10/135/69 8/136/69 6/62/69
f 62/111/31 58/113/31 6/62/31
f 58/113/31 54/63/31 6/62/31
f 30/123/31 26/127/31 22/129/31
f 22/129/31 18/131/31 14/133/31
f 14/133/31 10/135/31 22/129/31
f 10/135/31 6/62/31 22/129/31
f 54/63/31 46/118/31 38/64/31
f 38/64/31 30/123/31 6/62/31
f 30/123/31 22/129/31 6/62/31
f 62/65/32 64/67/32 63/66/32
f 64/67/33 1/137/33 3/68/33
f 67/71/34 71/138/34 99/139/34
f 99/139/34 98/140/34 97/141/34
f 97/141/34 96/142/34 93/143/34
f 96/142/34 95/144/34 93/143/34
f 95/144/34 94/145/34 93/143/34
f 93/143/34 92/146/34 91/147/34
f 91/147/34 90/148/34 93/143/34
f 90/148/34 89/149/34 93/143/34
f 89/149/34 88/150/34 87/151/34
f 87/151/34 86/152/34 65/69/34
f 65/69/34 85/153/34 84/154/34
f 84/154/34 83/155/34 65/69/34
f 83/155/34 82/156/34 65/69/34
f 82/156/34 81/157/34 80/158/34
f 80/158/34 79/159/34 82/156/34
f 79/159/34 66/70/34 82/156/34
f 66/70/34 78/160/34 77/161/34
f 77/161/34 76/162/34 66/70/34
f 76/162/34 75/163/34 66/70/34
f 75/163/34 74/164/34 67/71/34
f 74/164/34 73/165/34 67/71/34
f 73/165/34 72/166/34 67/71/34
f 67/71/34 99/139/34 97/141/34
f 89/149/34 87/151/34 93/143/34
f 87/151/34 65/69/34 93/143/34
f 67/71/34 97/141/34 65/69/34
f 97/141/34 93/143/34 65/69/34
f 65/69/34 82/156/34 66/70/34
f 66/70/34 75/163/34 67/71/34
f 68/72/35 100/167/35 69/73/35
f 63/66/36 3/68/36 71/75/36
f 61/61/37 63/66/37 67/76/37
f 59/59/38 61/61/38 72/77/38
f 57/57/39 59/59/39 73/78/39
f 55/55/40 57/57/40 74/79/40
f 53/53/41 55/55/41 75/80/41
f 51/51/42 53/53/42 76/81/42
f 49/49/72 51/51/72 77/82/72
f 47/47/73 49/49/73 78/83/73
f 45/45/45 47/47/45 66/84/45
f 43/43/46 45/45/46 79/85/46
f 41/41/47 43/43/47 80/86/47
f 39/39/48 41/41/48 81/87/48
f 37/37/49 39/39/49 82/88/49
f 35/35/50 37/37/50 83/89/50
f 33/33/74 35/35/74 84/90/74
f 31/31/75 33/33/75 85/91/75
f 29/29/53 31/31/53 65/92/53
f 87/94/54 27/27/54 29/29/54
f 25/25/55 27/27/55 87/94/55
f 23/23/56 25/25/56 88/95/56
f 90/97/57 21/21/57 23/23/57
f 91/98/58 19/19/58 21/21/58
f 17/17/76 19/19/76 91/98/76
f 15/15/77 17/17/77 92/99/77
f 94/101/61 13/13/61 15/15/61
f 11/11/62 13/13/62 94/101/62
f 9/9/63 11/11/63 95/102/63
f 7/7/64 9/9/64 96/103/64
f 5/5/65 7/7/65 97/104/65
f 2/2/66 5/5/66 98/105/66
f 3/3/78 2/2/78 99/106/78
