# Blender v2.91.0 OBJ File: ''
# www.blender.org
o Cube
v 3.206715 0.470852 -3.206715
v 3.206715 -0.470852 -3.206715
v 3.206715 0.470852 3.206715
v 3.206715 -0.470852 3.206715
v -3.206715 0.470852 -3.206715
v -3.206715 -0.470852 -3.206715
v -3.206715 0.470852 3.206715
v -3.206715 -0.470852 3.206715
vt 0.976562 0.730469
vt 0.726562 0.980469
vt 0.726562 0.730469
vt 0.323657 0.316625
vt 0.049095 0.591187
vt 0.049095 0.316625
vt 0.625000 0.000000
vt 0.375000 0.250000
vt 0.375000 0.000000
vt 0.184543 0.811551
vt 0.073270 0.922824
vt 0.073270 0.811551
vt 0.598218 0.315808
vt 0.323657 0.590369
vt 0.323657 0.315808
vt 0.872780 0.315808
vt 0.598218 0.590369
vt 0.598218 0.315808
vt 0.976562 0.980469
vt 0.323657 0.591187
vt 0.625000 0.250000
vt 0.184543 0.922824
vt 0.598218 0.590369
vt 0.872780 0.590369
vn 0.0000 1.0000 0.0000
vn 0.0000 0.0000 1.0000
vn -1.0000 0.0000 0.0000
vn 0.0000 -1.0000 0.0000
vn 1.0000 0.0000 0.0000
vn 0.0000 0.0000 -1.0000
s off
f 5/1/1 3/2/1 1/3/1
f 3/4/2 8/5/2 4/6/2
f 7/7/3 6/8/3 8/9/3
f 2/10/4 8/11/4 6/12/4
f 1/13/5 4/14/5 2/15/5
f 5/16/6 2/17/6 6/18/6
f 5/1/1 7/19/1 3/2/1
f 3/4/2 7/20/2 8/5/2
f 7/7/3 5/21/3 6/8/3
f 2/10/4 4/22/4 8/11/4
f 1/13/5 3/23/5 4/14/5
f 5/16/6 1/24/6 2/17/6
